# xmcd CD database file
#
# Track frame offsets:
#	150
#	16322
#	38782
#	41545
#	58527
#	73792
#	83395
#	94427
#	126855
#	129837
#	142525
#	157432
#	165815
#	169310
#	185877
#	201840
#
# Disc length: 2853 seconds
#
# Revision: 2
# Processed by: cddbd v1.4PL0 Copyright (c) Steve Scherf et al.
# Submitted via: CDex 1.40Release
#
DISCID=d50b2310
DTITLE=Sparklehorse - Vivadixiesubmarinetransmissionplot
DYEAR=1995
DGENRE=AlternRock
TTITLE0=Homecoming Queen
TTITLE1=Weird Sisters
TTITLE2=850 Double Pumper Holley
TTITLE3=Rainmaker
TTITLE4=Spirit Ditch
TTITLE5=Tears On Fresh Fruit
TTITLE6=Saturday
TTITLE7=Cow
TTITLE8=Little Bastard Choo Choo
TTITLE9=Hammering The Cramps
TTITLE10=Most Beautiful Widow In Town
TTITLE11=Heart Of Darkness
TTITLE12=Ballad Of A Cold Lost Marble
TTITLE13=Someday I Will Treat You Good
TTITLE14=Sad And Beautiful World 
TTITLE15=Gasoline Horseys
EXTD=YEAR: 1995 ID3G: 40
EXTT0=
EXTT1=
EXTT2=
EXTT3=
EXTT4=
EXTT5=
EXTT6=
EXTT7=
EXTT8=
EXTT9=
EXTT10=
EXTT11=
EXTT12=
EXTT13=
EXTT14=
EXTT15=
PLAYORDER=
